HIERARCHY
ROOT Hips
{
	OFFSET 0.000000 0.000000 0.000000 
	CHANNELS 6 Xposition Yposition Zposition Zrotation Yrotation Xrotation
	JOINT LeftUpLeg
	{
		OFFSET 1.363060 -1.794630 0.839290 
		CHANNELS 3 Zrotation Yrotation Xrotation
		JOINT LeftLeg
		{
			OFFSET 2.448110 -6.726130 0.000000 
			CHANNELS 3 Zrotation Yrotation Xrotation
			JOINT LeftFoot
			{
				OFFSET 2.562200 -7.039590 0.000000 
				CHANNELS 3 Zrotation Yrotation Xrotation
				JOINT LeftToeBase
				{
					OFFSET 0.157640 -0.433110 2.322550 
					CHANNELS 3 Zrotation Yrotation Xrotation
					End Site
					{
						OFFSET 0.000000 0.000000 0.000000 
					}
				}
			}
		}
	}
	JOINT RightUpLeg
	{
		OFFSET -1.305520 -1.794630 0.839290 
		CHANNELS 3 Zrotation Yrotation Xrotation
		JOINT RightLeg
		{
			OFFSET -2.542530 -6.985550 0.000000 
			CHANNELS 3 Zrotation Yrotation Xrotation
			JOINT RightFoot
			{
				OFFSET -2.568260 -7.056230 0.000000 
				CHANNELS 3 Zrotation Yrotation Xrotation
				JOINT RightToeBase
				{
					OFFSET -0.164730 -0.452590 2.363150 
					CHANNELS 3 Zrotation Yrotation Xrotation
					End Site
					{
						OFFSET 0.000000 0.000000 0.000000 
					}
				}
			}
		}
	}
	JOINT Spine
	{
		OFFSET 0.028270 2.035590 -0.193380 
		CHANNELS 3 Zrotation Yrotation Xrotation
		JOINT Spine1
		{
			OFFSET 0.056720 2.048850 -0.042750 
			CHANNELS 3 Zrotation Yrotation Xrotation
			JOINT Neck1
			{
				OFFSET -0.054170 1.746240 0.172020 
				CHANNELS 3 Zrotation Yrotation Xrotation
				JOINT Head
				{
					OFFSET 0.104070 1.761360 -0.123970 
					CHANNELS 3 Zrotation Yrotation Xrotation
					End Site
					{
						OFFSET 0.000000 0.000000 0.000000 
					}
				}
			}
			JOINT LeftArm
			{
				OFFSET 3.362410 1.200890 -0.311210 
				CHANNELS 3 Zrotation Yrotation Xrotation
				JOINT LeftForeArm
				{
					OFFSET 4.983000 -0.000000 -0.000000 
					CHANNELS 3 Zrotation Yrotation Xrotation
					JOINT LeftHand
					{
						OFFSET 3.483560 -0.000000 -0.000000 
						CHANNELS 3 Zrotation Yrotation Xrotation
						JOINT LeftHandIndex1
						{
							OFFSET 0.715260 -0.000000 -0.000000 
							CHANNELS 3 Zrotation Yrotation Xrotation
							End Site
							{
								OFFSET 0.000000 0.000000 0.000000 
							}
						}
					}
				}
			}
			JOINT RightArm
			{
				OFFSET -3.136600 1.374050 -0.404650 
				CHANNELS 3 Zrotation Yrotation Xrotation
				JOINT RightForeArm
				{
					OFFSET -5.241900 -0.000000 -0.000000 
					CHANNELS 3 Zrotation Yrotation Xrotation
					JOINT RightHand
					{
						OFFSET -3.444170 -0.000000 -0.000000 
						CHANNELS 3 Zrotation Yrotation Xrotation
						JOINT RightHandIndex1
						{
							OFFSET -0.622530 -0.000000 -0.000000 
							CHANNELS 3 Zrotation Yrotation Xrotation
							End Site
							{
								OFFSET 0.000000 0.000000 0.000000 
							}
						}
					}
				}
			}
		}
	}
}
MOTION
Frames: 18
Frame Time: 0.041667
13.339670 17.160543 28.105221 4.607369 -11.165535 29.044626 -24.228931 13.602362 -72.252564 8.698223 23.909951 37.163327 0.500965 16.058018 53.424491 0.731500 -5.464300 -15.237600 8.992029 -3.179605 -70.756549 -13.464476 -27.855196 45.999416 -2.220789 -12.805772 56.799200 -0.054200 1.502700 -4.133200 -0.235827 4.288032 -7.313308 0.392565 3.064723 -3.185632 4.221008 -1.524759 13.351433 0.678500 -0.911800 20.401300 -20.243708 19.403910 87.590913 48.042772 -42.391907 -48.294547 -6.424541 -10.887930 -0.545837 -7.125000 0.000000 0.000000 17.808287 -26.153967 82.951124 -55.317171 46.053144 -51.720125 3.575497 3.490641 20.997637 7.125000 0.000000 0.000000 
13.337516 17.217693 28.113262 4.575213 -11.173962 29.296595 -24.215896 13.795644 -72.137200 8.472559 23.823343 36.680585 0.617598 16.019482 53.585629 0.744600 -5.512000 -15.374800 8.733531 -3.070918 -70.438223 -13.281629 -27.858120 45.480450 -2.246682 -12.983564 56.850487 -0.059200 1.570300 -4.319500 -0.213033 4.288677 -7.330140 0.417832 3.075737 -3.208728 4.212551 -1.521503 13.300083 0.675000 -0.916000 20.320800 -20.458545 19.171989 87.691217 47.405230 -42.011987 -47.328031 -6.596192 -10.870010 -0.571189 -7.125000 0.000000 0.000000 18.002687 -25.992335 83.027472 -54.773644 45.782459 -50.984031 3.692148 3.406026 20.969373 7.125000 0.000000 0.000000 
13.335506 17.274987 28.120155 4.561861 -11.177728 29.508476 -24.195912 13.999354 -71.988562 8.232368 23.739016 36.183853 0.739548 15.964962 53.744834 0.759100 -5.564300 -15.525200 8.438788 -2.963508 -70.071205 -13.102258 -27.864481 44.958560 -2.276266 -13.165236 56.905493 -0.063800 1.629700 -4.483300 -0.190595 4.281338 -7.344688 0.443151 3.083804 -3.231867 4.207072 -1.504519 13.253914 0.676500 -0.916100 20.247900 -20.685863 18.966638 87.760264 46.786699 -41.660455 -46.388779 -6.760335 -10.851087 -0.593455 -7.125000 0.000000 0.000000 18.184059 -25.823192 83.098248 -54.231834 45.517731 -50.257740 3.808675 3.326881 20.929225 7.125000 0.000000 0.000000 
13.332777 17.330844 28.123170 4.546361 -11.136973 29.679710 -24.126015 14.193034 -71.783380 7.979239 23.661883 35.664431 0.870452 15.903891 53.915154 0.771800 -5.609600 -15.655800 8.142151 -2.872196 -69.668422 -12.931188 -27.872110 44.429176 -2.301178 -13.397608 56.958566 -0.067900 1.681700 -4.626800 -0.164777 4.251770 -7.363599 0.462796 3.082299 -3.303588 4.204214 -1.476004 13.210083 0.681900 -0.912200 20.187500 -20.915428 18.787222 87.815539 46.177908 -41.325569 -45.471752 -6.918525 -10.850025 -0.644325 -7.125000 0.000000 0.000000 18.354178 -25.648864 83.161845 -53.679935 45.247763 -49.528723 3.927984 3.253118 20.880236 7.125000 0.000000 0.000000 
13.330049 17.386128 28.124032 4.529832 -11.080681 29.830394 -24.043684 14.397517 -71.558940 7.721040 23.589220 35.134227 1.003289 15.866472 54.088858 0.778900 -5.634800 -15.728400 7.837807 -2.781768 -69.243941 -12.764220 -27.883490 43.894843 -2.321716 -13.670891 57.006864 -0.071100 1.720100 -4.732800 -0.137222 4.217554 -7.384803 0.467293 3.075897 -3.394232 4.202332 -1.440028 13.172813 0.688900 -0.905000 20.144100 -21.143394 18.629254 87.866828 45.584700 -41.010185 -44.581685 -7.068857 -10.860631 -0.732879 -7.125000 0.000000 0.000000 18.516279 -25.473380 83.222715 -53.110361 44.973212 -48.786661 4.050886 3.183322 20.831710 7.125000 0.000000 0.000000 
13.328039 17.440837 28.124319 4.511568 -11.021506 29.979185 -23.971723 14.621290 -71.344321 7.460902 23.519912 34.603340 1.136398 15.859160 54.261283 0.781200 -5.642800 -15.751600 7.533472 -2.688854 -68.821254 -12.598181 -27.896529 43.360455 -2.338086 -13.972268 57.048034 -0.073400 1.748000 -4.809600 -0.108457 4.187093 -7.407570 0.451259 3.066561 -3.487333 4.198325 -1.401268 13.143051 0.691800 -0.894600 20.117100 -21.366793 18.485430 87.914584 44.999522 -40.707960 -43.707398 -7.215370 -10.868558 -0.853146 -7.125000 0.000000 0.000000 18.682907 -25.304329 83.274690 -52.525387 44.700067 -48.028619 4.176367 3.115060 20.790434 7.125000 0.000000 0.000000 
13.326029 17.494541 28.123601 4.476357 -10.945307 30.134311 -23.898070 14.862567 -71.140449 7.201159 23.455538 34.076141 1.271384 15.886215 54.432345 0.777700 -5.630400 -15.715800 7.253476 -2.602456 -68.410703 -12.431513 -27.908206 42.825655 -2.346228 -14.308360 57.077886 -0.074700 1.763000 -4.851200 -0.075969 4.160318 -7.433655 0.413044 3.053018 -3.590765 4.192479 -1.363040 13.118893 0.691800 -0.882400 20.103900 -21.580798 18.352473 87.956526 44.419226 -40.414145 -42.848302 -7.361849 -10.868377 -0.991602 -7.125000 0.000000 0.000000 18.860883 -25.154045 83.310623 -51.937741 44.436463 -47.267652 4.301978 3.048182 20.759669 7.125000 0.000000 0.000000 
13.324449 17.547957 28.123601 4.435015 -10.875303 30.304776 -23.857585 15.134301 -70.978349 6.939555 23.392372 33.564645 1.407543 15.932736 54.590649 0.771100 -5.607200 -15.648700 6.994667 -2.521008 -68.025412 -12.260730 -27.915894 42.296902 -2.350595 -14.646603 57.098976 -0.075200 1.769300 -4.868600 -0.041596 4.145556 -7.459677 0.354873 3.038602 -3.673664 4.182476 -1.327640 13.100426 0.684500 -0.868300 20.097200 -21.782913 18.225226 87.993220 43.839578 -40.127872 -42.000662 -7.509933 -10.860013 -1.134129 -7.125000 0.000000 0.000000 19.052606 -25.025535 83.331074 -51.359518 44.191980 -46.515347 4.424429 2.984323 20.731887 7.125000 0.000000 0.000000 
13.322582 17.600369 28.123888 4.377984 -10.795968 30.499082 -23.838813 15.433666 -70.859532 6.673714 23.331608 33.069563 1.549811 15.990258 54.737945 0.762100 -5.574800 -15.555700 6.771723 -2.449798 -67.671570 -12.084578 -27.916708 41.770819 -2.347391 -14.996896 57.107953 -0.074900 1.765100 -4.857000 -0.000795 4.135934 -7.487951 0.285343 3.021635 -3.750124 4.170735 -1.294712 13.083613 0.675000 -0.853900 20.092200 -21.975926 18.102834 88.015518 43.265785 -39.850163 -41.170844 -7.657488 -10.837080 -1.263246 -7.125000 0.000000 0.000000 19.255911 -24.919628 83.330083 -50.802074 43.969120 -45.787205 4.541536 2.923938 20.698626 7.125000 0.000000 0.000000 
13.320141 17.652063 28.124462 4.301831 -10.702679 30.722863 -23.837957 15.760043 -70.784890 6.401561 23.273523 32.591662 1.700555 16.053581 54.874484 0.751300 -5.536200 -15.444400 6.594740 -2.395297 -67.356912 -11.900918 -27.907322 41.247774 -2.337259 -15.347903 57.105986 -0.074100 1.756300 -4.832700 0.048111 4.127965 -7.517710 0.210080 3.000498 -3.811098 4.158071 -1.262122 13.066375 0.665600 -0.839200 20.083200 -22.152658 17.979939 88.030599 42.694378 -39.578762 -40.362419 -7.800158 -10.830519 -1.385662 -7.125000 0.000000 0.000000 19.467550 -24.830785 83.298831 -50.272377 43.769512 -45.094063 4.649864 2.868240 20.665640 7.125000 0.000000 0.000000 
13.317269 17.702895 28.125611 4.204483 -10.591758 30.973270 -23.848214 16.113639 -70.749353 6.121236 23.219227 32.131842 1.862449 16.116331 55.001116 0.738200 -5.488900 -15.308500 6.466034 -2.361065 -67.076677 -11.707674 -27.886279 40.724707 -2.320530 -15.694020 57.093978 -0.072700 1.739800 -4.787000 0.106514 4.120009 -7.548591 0.132169 2.974488 -3.853529 4.145286 -1.230193 13.048382 0.657500 -0.824700 20.071000 -22.314177 17.855779 88.041575 42.139887 -39.319760 -39.589582 -7.934465 -10.835578 -1.495470 -7.125000 0.000000 0.000000 19.684211 -24.753045 83.234242 -49.766722 43.589533 -44.434740 4.749628 2.815487 20.633893 7.125000 0.000000 0.000000 
13.314110 17.753439 28.126329 4.083624 -10.460528 31.242662 -23.860770 16.500264 -70.743709 5.829018 23.170179 31.687269 2.039615 16.174484 55.119813 0.724300 -5.437900 -15.161800 6.381053 -2.346513 -66.818718 -11.502320 -27.854501 40.195216 -2.299202 -16.031516 57.076715 -0.070200 1.709500 -4.703400 0.176169 4.110932 -7.580119 0.053203 2.942985 -3.875274 4.133185 -1.197846 13.028778 0.651500 -0.810000 20.055700 -22.455133 17.727937 88.052806 41.614410 -39.076669 -38.869023 -8.057153 -10.859911 -1.600000 -7.125000 0.000000 0.000000 19.906538 -24.680972 83.126654 -49.282595 43.426584 -43.808134 4.839994 2.764614 20.617103 7.125000 0.000000 0.000000 
13.310520 17.802979 28.126616 3.939429 -10.313675 31.526623 -23.877158 16.928770 -70.769370 5.527809 23.130306 31.262137 2.232159 16.244375 55.232798 0.710000 -5.385300 -15.010900 6.324917 -2.338803 -66.573022 -11.283499 -27.815426 39.659452 -2.273257 -16.354131 57.053809 -0.066700 1.666500 -4.584900 0.259127 4.103052 -7.612446 -0.027304 2.907151 -3.876735 4.122416 -1.166208 13.007306 0.647800 -0.795100 20.039100 -22.576200 17.596607 88.062983 41.133264 -38.855153 -38.217470 -8.165783 -10.898865 -1.699696 -7.125000 0.000000 0.000000 20.130185 -24.610419 82.976564 -48.814748 43.276055 -43.210883 4.922808 2.715147 20.622219 7.125000 0.000000 0.000000 
13.306931 17.851083 28.126185 3.773398 -10.154321 31.821367 -23.898704 17.400604 -70.831113 5.216969 23.101124 30.862928 2.441706 16.320270 55.338239 0.698000 -5.340400 -14.881900 6.288653 -2.329045 -66.338940 -11.052696 -27.770790 39.122806 -2.242655 -16.654093 57.024901 -0.062500 1.612600 -4.436100 0.357099 4.096426 -7.645727 -0.107946 2.868088 -3.861326 4.113554 -1.135949 12.983757 0.646400 -0.780200 20.019600 -22.676232 17.464105 88.076467 40.704609 -38.657576 -37.643564 -8.260182 -10.949206 -1.800274 -7.125000 0.000000 0.000000 20.347546 -24.538434 82.801799 -48.364808 43.135819 -42.643822 4.999288 2.667457 20.647581 7.125000 0.000000 0.000000 
13.302910 17.896458 28.124319 3.589238 -9.975195 32.110989 -23.911370 17.901946 -70.915133 4.898644 23.085174 30.494926 2.668413 16.390162 55.439986 0.684400 -5.289100 -14.735100 6.267267 -2.318079 -66.107206 -10.815968 -27.722620 38.593360 -2.206535 -16.932791 56.988849 -0.057500 1.547700 -4.257300 0.468906 4.086939 -7.679455 -0.185967 2.824823 -3.833664 4.108838 -1.106778 12.957526 0.650300 -0.765700 20.000100 -22.758453 17.329987 88.091541 40.328802 -38.482413 -37.142390 -8.345453 -10.992306 -1.903371 -7.125000 0.000000 0.000000 20.548142 -24.458590 82.624352 -47.938110 43.003863 -42.112098 5.071985 2.623140 20.678710 7.125000 0.000000 0.000000 
13.298459 17.937526 28.121303 3.397815 -9.780938 32.392409 -23.913661 18.405701 -71.017497 4.575359 23.077345 30.166316 2.904372 16.425063 55.526790 0.672700 -5.244900 -14.608500 6.254780 -2.304217 -65.887550 -10.578624 -27.670188 38.087120 -2.167754 -17.170143 56.945145 -0.053600 1.494000 -4.109100 0.588262 4.074669 -7.713765 -0.262865 2.779101 -3.804457 4.106041 -1.081524 12.927660 0.655100 -0.752000 19.977200 -22.815502 17.192719 88.119717 39.994953 -38.321313 -36.702296 -8.420201 -11.040211 -2.017042 -7.125000 0.000000 0.000000 20.719619 -24.372373 82.476439 -47.544134 42.880079 -41.623784 5.141911 2.585986 20.699264 7.125000 0.000000 0.000000 
13.293720 17.972563 28.117139 3.210067 -9.579280 32.657163 -23.907828 18.888551 -71.133998 4.257029 23.074699 29.883288 3.140567 16.416724 55.598551 0.658400 -5.189900 -14.451100 6.245777 -2.285993 -65.685413 -10.349028 -27.615405 37.618298 -2.127845 -17.360955 56.894291 -0.050800 1.453800 -3.998400 0.710013 4.057819 -7.747851 -0.333995 2.732417 -3.778757 4.106110 -1.058843 12.893672 0.662000 -0.739200 19.949700 -22.854079 17.059216 88.151946 39.698277 -38.173667 -36.315732 -8.489063 -11.082127 -2.137166 -7.125000 0.000000 0.000000 20.844371 -24.274831 82.388360 -47.193102 42.762669 -41.190201 5.210006 2.559542 20.693652 7.125000 0.000000 0.000000 
13.288694 18.001425 28.111395 3.035665 -9.379466 32.901826 -23.903518 19.334774 -71.264165 3.949592 23.071942 29.645302 3.370295 16.356231 55.657336 0.646000 -5.141800 -14.313400 6.234731 -2.264444 -65.501009 -10.130319 -27.558198 37.190242 -2.089689 -17.503380 56.838130 -0.049000 1.428300 -3.928100 0.828248 4.036800 -7.780584 -0.399181 2.686766 -3.756299 4.107579 -1.037468 12.855749 0.667600 -0.726200 19.917400 -22.872920 16.929220 88.193423 39.432662 -38.036670 -35.976599 -8.549974 -11.134490 -2.267639 -7.125000 0.000000 0.000000 20.914962 -24.162918 82.373106 -46.894644 42.652394 -40.820727 5.274595 2.545818 20.656343 7.125000 0.000000 0.000000 
